<?xml version="1.0" encoding="UTF-8"?>
<svg version="1.1" xmlns="http://www.w3.org/2000/svg" width="1920" height="500">
<path d="M0 0 C3.46079623 1.85162402 6.79475296 3.90890688 10.12451172 5.98486328 C13.01265171 7.78249937 15.92062063 9.5449947 18.83203125 11.3046875 C22.32742675 13.41908572 25.82153124 15.53530726 29.30834961 17.66381836 C38.39781225 23.21129602 47.53830732 28.66791595 56.703125 34.08984375 C67.31475505 40.36974841 77.88412496 46.71277344 88.41210938 53.13183594 C97.80155059 58.85436311 107.24050861 64.48924256 116.703125 70.08984375 C127.31442598 76.37031232 137.88411727 82.71276875 148.41210938 89.13183594 C157.80155059 94.85436311 167.24050861 100.48924256 176.703125 106.08984375 C187.31442598 112.37031232 197.88411727 118.71276875 208.41210938 125.13183594 C217.80155059 130.85436311 227.24050861 136.48924256 236.703125 142.08984375 C247.31442598 148.37031232 257.88411727 154.71276875 268.41210938 161.13183594 C277.80155059 166.85436311 287.24050861 172.48924256 296.703125 178.08984375 C307.31442598 184.37031232 317.88411727 190.71276875 328.41210938 197.13183594 C337.80155059 202.85436311 347.24050861 208.48924256 356.703125 214.08984375 C367.31442598 220.37031232 377.88411727 226.71276875 388.41210938 233.13183594 C397.80155059 238.85436311 407.24050861 244.48924256 416.703125 250.08984375 C427.31442598 256.37031232 437.88411727 262.71276875 448.41210938 269.13183594 C457.80155059 274.85436311 467.24050861 280.48924256 476.703125 286.08984375 C487.31442598 292.37031232 497.88411727 298.71276875 508.41210938 305.13183594 C518.47229642 311.2631586 528.59181141 317.29026436 538.73104858 323.28979492 C548.95196808 329.33918449 559.12037785 335.46906026 569.2598877 341.65377808 C579.32055159 347.78716519 589.46757568 353.75356378 599.703125 359.58984375 C599.95064703 358.35971841 600.19816906 357.12959307 600.45319176 355.8621912 C601.79452595 349.84824294 603.74166319 344.06831031 605.70205688 338.23228455 C606.31102768 336.40152723 606.31102768 336.40152723 606.93230093 334.53378493 C608.05250601 331.16649682 609.17827923 327.80109367 610.30501223 324.43598521 C611.52162039 320.79916309 612.73299706 317.16059865 613.94502258 313.52224731 C616.04340101 307.22554196 618.1450621 300.92994018 620.24898148 294.63508415 C623.29085955 285.5338713 626.327743 276.43099808 629.36342518 267.32771701 C634.28921703 252.55690101 639.21902384 237.7874283 644.15136719 223.01879883 C648.94156672 208.67575361 653.72986803 194.33207701 658.515625 179.98754883 C658.81081212 179.10277565 659.10599923 178.21800248 659.41013141 177.30641799 C660.89104419 172.86759488 662.37191973 168.42875935 663.85277677 163.98991764 C676.13045428 127.18796555 688.41465268 90.38819266 700.703125 53.58984375 C700.373125 53.25984375 700.043125 52.92984375 699.703125 52.58984375 C699.03369873 53.01394531 698.36427246 53.43804687 697.67456055 53.875 C694.59523721 55.80571001 691.49375111 57.69764914 688.390625 59.58984375 C686.8118457 60.59144531 686.8118457 60.59144531 685.20117188 61.61328125 C678.27174203 65.79226048 672.83646153 67.95161022 664.703125 66.58984375 C660.23868869 65.24863265 657.52540621 62.81827195 655.265625 58.77734375 C653.04812836 53.58398581 652.91272649 49.04007256 654.828125 43.71484375 C657.06390242 39.78153162 660.13802578 37.73112588 663.90625 35.4140625 C664.83055313 34.83335747 664.83055313 34.83335747 665.77352905 34.24092102 C672.88538266 29.79887952 680.10365049 25.53266582 687.328125 21.27734375 C689.43640265 20.03159638 691.54411541 18.78489738 693.65176392 17.53808594 C695.04171256 16.71586223 696.43182684 15.89391844 697.82211304 15.07226562 C704.58240963 11.07532943 711.31634807 7.03500358 718.04150391 2.97924805 C718.77288574 2.5387915 719.50426758 2.09833496 720.2578125 1.64453125 C720.88155762 1.26796387 721.50530273 0.89139648 722.14794922 0.50341797 C726.77545109 -2.21496696 731.441159 -1.82255997 736.703125 -1.41015625 C741.06187825 0.29544285 744.4093544 3.49343734 746.703125 7.58984375 C748.18128133 13.4593791 747.63734036 18.52411562 745.62734985 24.19694519 C745.38507652 24.92817758 745.14280319 25.65940996 744.89318824 26.41280091 C744.06081286 28.91156041 743.2031243 31.40092202 742.34619141 33.89135742 C741.71924878 35.75823538 741.09418365 37.62574465 740.47075844 39.49380016 C739.04170426 43.76789319 737.60250879 48.03841684 736.15772247 52.30721664 C733.47437408 60.24981119 730.83809928 68.20770443 728.20526123 76.16714478 C727.20807313 79.18055591 726.21070338 82.19390689 725.21326256 85.20723438 C724.9589092 85.97569825 724.70455584 86.74416211 724.4424948 87.53591276 C721.45249358 96.56708958 718.45087192 105.59439916 715.44833374 114.62141418 C715.02275884 115.90093881 715.02275884 115.90093881 714.58858646 117.20631241 C712.53082243 123.39288658 710.47249619 129.57927362 708.4140625 135.765625 C707.81278956 137.57276849 707.21151842 139.37991258 706.61024904 141.18705726 C700.98661531 158.08884243 695.36169274 174.99019839 689.73387718 191.89059162 C688.44577606 195.75884208 687.15769187 199.62709817 685.86962891 203.49536133 C685.54962754 204.45637377 685.22962618 205.41738622 684.89992781 206.40752026 C679.67927204 222.0866136 674.46587165 237.76810997 669.25524418 253.45053849 C663.87810559 269.63368061 658.49419833 285.81455847 653.10371935 301.99326199 C650.08779249 311.04569726 647.07488213 320.09911219 644.06968307 329.15511513 C641.52158736 336.83363226 638.96744222 344.51010234 636.40526871 352.18393407 C635.09988047 356.09426606 633.79743734 360.00551499 632.50282669 363.91942978 C631.31800286 367.50121013 630.12489786 371.08011908 628.92515667 374.6569294 C628.28848684 376.56218274 627.66068988 378.47039402 627.03322351 380.37869817 C624.18208484 388.83847116 621.92942471 395.1476419 613.703125 399.58984375 C607.64048151 401.43499612 602.40620627 400.01438242 596.94580078 397.13671875 C594.26280162 395.54589477 591.60443724 393.92305692 588.96484375 392.26123047 C586.52285236 390.72415662 584.06642622 389.2108445 581.6105957 387.6960144 C580.30765926 386.89222108 579.00542322 386.08729141 577.70385742 385.28128052 C571.09403219 381.19374821 564.4120519 377.23165801 557.7199707 373.2807312 C546.42986087 366.61425687 535.18873124 359.87335338 523.99414062 353.04785156 C514.60469941 347.32532439 505.16574139 341.69044494 495.703125 336.08984375 C485.09182402 329.80937518 474.52213273 323.46691875 463.99414062 317.04785156 C454.60469941 311.32532439 445.16574139 305.69044494 435.703125 300.08984375 C425.09182402 293.80937518 414.52213273 287.46691875 403.99414062 281.04785156 C394.60469941 275.32532439 385.16574139 269.69044494 375.703125 264.08984375 C365.09182402 257.80937518 354.52213273 251.46691875 343.99414062 245.04785156 C334.60469941 239.32532439 325.16574139 233.69044494 315.703125 228.08984375 C305.09182402 221.80937518 294.52213273 215.46691875 283.99414062 209.04785156 C274.60469941 203.32532439 265.16574139 197.69044494 255.703125 192.08984375 C245.09182402 185.80937518 234.52213273 179.46691875 223.99414062 173.04785156 C214.60469941 167.32532439 205.16574139 161.69044494 195.703125 156.08984375 C185.09182402 149.80937518 174.52213273 143.46691875 163.99414062 137.04785156 C154.60469941 131.32532439 145.16574139 125.69044494 135.703125 120.08984375 C125.09182402 113.80937518 114.52213273 107.46691875 103.99414062 101.04785156 C94.60469896 95.32532411 85.16573008 89.69046513 75.703125 84.08984375 C61.95261155 75.95123756 48.28172863 67.68819174 34.63769531 59.37255859 C30.33711137 56.76000752 26.0214199 54.1729742 21.703125 51.58984375 C24.41277974 62.56656286 28.16081715 73.229282 31.74487305 83.94213867 C32.46477616 86.10128324 33.1844143 88.26051617 33.90380859 90.41983032 C35.84923057 96.25666817 37.7983401 102.09226854 39.74813056 107.92764831 C41.78824704 114.03546345 43.824947 120.14441765 45.86201477 126.25325012 C49.27887798 136.49833733 52.69783274 146.74272397 56.1184082 156.98657227 C59.64000495 167.53297563 63.16032132 178.07980496 66.67895508 188.62719727 C66.89842881 189.28508246 67.11790254 189.94296765 67.34402698 190.62078875 C69.2534287 196.34436757 71.16273411 202.0679785 73.07203007 207.7915926 C81.27852792 232.39230154 89.4913433 256.99089661 97.703125 281.58984375 C98.033125 232.41984375 98.363125 183.24984375 98.703125 132.58984375 C100.353125 133.24984375 102.003125 133.90984375 103.703125 134.58984375 C104.69399172 134.87221358 105.68485844 135.15458342 106.70575142 135.44550991 C115.89125875 138.17266233 125.44638858 142.12672934 130.703125 150.58984375 C136.34921284 165.43928988 133.98197901 184.09610544 133.53955603 199.6368916 C133.38106898 206.18593961 133.37481858 212.7352023 133.35110474 219.28587341 C133.29513226 230.27380331 133.13394367 241.25682946 132.90478516 252.24243164 C132.66951793 263.53174291 132.49977058 274.81913586 132.41259766 286.1105957 C132.40720033 286.80736526 132.40180301 287.50413482 132.39624213 288.22201861 C132.37476875 291.02329325 132.3536549 293.82457027 132.33304112 296.62585137 C132.17374503 318.0779301 131.95699303 339.53145269 131.53636932 360.98004341 C131.49407183 363.22332233 131.45653577 365.46669684 131.42411423 367.71014023 C131.37850353 370.77263777 131.31462857 373.83420908 131.24557495 376.89625549 C131.23589624 377.78321549 131.22621753 378.67017548 131.21624553 379.58401304 C131.03274671 386.28476136 129.69347685 390.95555454 125.578125 396.40234375 C121.75588467 399.31057009 118.49789257 400.40303462 113.703125 400.58984375 C107.83678571 399.75179528 104.6672551 397.91495865 100.89983539 393.2801853 C99.07934818 390.70876517 98.14650918 388.0513945 97.1513319 385.07262135 C96.93620434 384.44091883 96.72107678 383.80921632 96.49943021 383.1583713 C95.78492309 381.04958131 95.08972234 378.93494235 94.39433289 376.81977844 C93.8796812 375.28763098 93.36385592 373.75587733 92.84696132 372.2244851 C91.4322877 368.02189354 90.03449883 363.81385256 88.63946617 359.60470736 C87.13114221 355.06349013 85.60730952 350.52747854 84.085495 345.99076843 C81.10742635 337.10430466 78.14407028 328.21300188 75.18607321 319.31983934 C72.78133422 312.09076506 70.37155396 304.86339013 67.95816994 297.63719749 C67.61470259 296.608752 67.27123525 295.58030652 66.9173598 294.52069601 C66.2195876 292.43140154 65.52180724 290.3421098 64.82401881 288.25282075 C58.2802384 268.65749435 51.75349208 249.05652652 45.23223416 229.45369526 C39.63818516 212.63952529 34.02825028 195.83072361 28.40698242 179.02563477 C21.87849352 159.5083572 15.36090055 139.98749346 8.85985976 120.4610545 C8.16625834 118.37788659 7.4726389 116.29472468 6.77900124 114.21156883 C6.4377265 113.18663757 6.09645177 112.16170631 5.74483537 111.10571653 C3.34104477 103.88915544 0.92939211 96.67525015 -1.48540688 89.4623661 C-4.429538 80.66783645 -7.36197112 71.86951128 -10.2794951 63.06611738 C-11.76792527 58.57592557 -13.26155466 54.08764879 -14.76961517 49.60400772 C-16.15115298 45.49605196 -17.51723964 41.38328692 -18.87140419 37.26622953 C-19.3628158 35.78113371 -19.85974908 34.29785065 -20.36287061 32.81668095 C-26.68070071 14.19183416 -26.68070071 14.19183416 -23.046875 5.65234375 C-16.63088971 -1.90935319 -9.47954215 -4.05463829 0 0 Z " fill="#FCB724" transform="translate(24.296875,63.41015625)"/>
<path d="M0 0 C7.70631898 4.66870552 14.67815518 10.61502353 21.74609375 16.1796875 C26.38189679 19.81356196 31.10379331 23.31800294 35.859375 26.79296875 C42.64865595 31.7582951 49.36835982 36.80462511 56.046875 41.91796875 C62.66625774 46.98459685 69.32190707 51.99232334 76.046875 56.91796875 C83.67427517 62.50459295 91.20332065 68.21073213 98.7109375 73.95703125 C104.44590227 78.33861201 110.22447063 82.65339833 116.046875 86.91796875 C123.67427517 92.50459295 131.20332065 98.21073213 138.7109375 103.95703125 C144.44590227 108.33861201 150.22447063 112.65339833 156.046875 116.91796875 C163.67427517 122.50459295 171.20332065 128.21073213 178.7109375 133.95703125 C184.44590353 138.33861296 190.22450675 142.65334739 196.046875 146.91796875 C204.69562434 153.25371221 213.22541645 159.73835788 221.7421875 166.25 C227.31554854 170.51062724 232.92205627 174.72555728 238.546875 178.91796875 C245.07038973 174.69860421 251.27537945 170.16605526 257.421875 165.41796875 C264.24653225 160.1801046 271.10430638 154.99854017 278.046875 149.91796875 C284.77206899 144.99263312 291.42741149 139.98447894 298.046875 134.91796875 C305.43329292 129.2644348 312.87881966 123.70326681 320.3828125 118.20703125 C326.32358933 113.84519843 332.1944076 109.39742327 338.046875 104.91796875 C345.43329292 99.2644348 352.87881966 93.70326681 360.3828125 88.20703125 C366.32358933 83.84519843 372.1944076 79.39742327 378.046875 74.91796875 C385.43329292 69.2644348 392.87881966 63.70326681 400.3828125 58.20703125 C406.32358933 53.84519843 412.1944076 49.39742327 418.046875 44.91796875 C425.4266461 39.26952225 432.86439483 33.71182611 440.36303711 28.22241211 C447.37056411 23.07936037 454.28165694 17.81380273 461.16796875 12.50976562 C480.41802061 -2.26176471 480.41802061 -2.26176471 490.546875 -1.08203125 C495.44413077 0.5026558 498.27492517 3.24798033 500.73461819 7.79758823 C502.31173487 11.91462047 502.09465746 16.11973459 502.05480957 20.47608948 C502.06104953 21.52731001 502.0672895 22.57853055 502.07371855 23.66160625 C502.08965032 27.17770971 502.07704301 30.69312013 502.06445312 34.20922852 C502.0698741 36.73251754 502.07699661 39.25580339 502.08569336 41.77908325 C502.10203802 47.91707412 502.09964781 54.0548091 502.0880428 60.19280333 C502.07900167 65.18163657 502.0777874 70.17041499 502.08213806 75.15925407 C502.08275099 75.86984115 502.08336393 76.58042822 502.08399543 77.31254823 C502.08527436 78.75617212 502.08657121 80.199796 502.0878858 81.64341985 C502.09928553 95.17265232 502.08618702 108.70177627 502.06468433 122.23099094 C502.04681001 133.83658407 502.04992133 145.44201717 502.06835938 157.04760742 C502.0897702 170.53065196 502.09819101 184.01360149 502.08591032 197.49666065 C502.08463614 198.93460682 502.08337866 200.372553 502.08213806 201.81049919 C502.08152096 202.51796634 502.08090386 203.2254335 502.08026806 203.95433905 C502.07681607 208.93698028 502.08264013 213.91956118 502.09205627 218.90219307 C502.10445237 225.60898479 502.0956148 232.31542755 502.07247925 239.02220535 C502.06718478 241.48528605 502.06871845 243.94839216 502.07752991 246.41146278 C502.0884391 249.77026432 502.07477641 253.12809238 502.05480957 256.48683167 C502.06373246 257.46455349 502.07265534 258.44227532 502.08184862 259.44962507 C502.0163276 265.12084579 501.36764817 268.43644218 497.546875 272.91796875 C493.80755985 276.38367547 490.95301781 277.20186823 485.984375 277.35546875 C479.73553829 277.09333893 477.11404343 275.55637211 472.796875 271.04296875 C468.9947242 265.76220375 469.39618635 260.4823629 469.38865662 254.15446472 C469.38371864 253.27222884 469.37878066 252.38999296 469.37369305 251.48102266 C469.35833718 248.52535487 469.34996258 245.56970878 469.34155273 242.61401367 C469.33197271 240.49507456 469.32196256 238.37613735 469.31155396 236.25720215 C469.28451231 230.50356169 469.2634987 224.74991303 469.24355197 218.99624419 C469.22168789 212.9837531 469.19430125 206.97128725 469.16749573 200.95881653 C469.11757458 189.57276337 469.07263358 178.18669619 469.02947336 166.80061561 C468.98009607 153.83821448 468.92517976 140.87583868 468.86979377 127.91346204 C468.75598259 101.24832124 468.64914164 74.58315615 468.546875 47.91796875 C468.02870618 48.32181856 467.51053736 48.72566837 466.97666645 49.14175606 C464.60830961 50.98712275 462.23934095 52.83170241 459.87036133 54.67626953 C458.64763897 55.62926689 458.64763897 55.62926689 457.40021515 56.60151672 C452.07105905 60.74983635 446.703103 64.82997083 441.234375 68.79296875 C434.44324629 73.75571665 427.72533025 78.804671 421.046875 83.91796875 C413.66055491 89.57162837 406.21492768 95.13267264 398.7109375 100.62890625 C392.77016067 104.99073907 386.8993424 109.43851423 381.046875 113.91796875 C373.66045708 119.5715027 366.21493034 125.13267069 358.7109375 130.62890625 C352.77016067 134.99073907 346.8993424 139.43851423 341.046875 143.91796875 C333.66045708 149.5715027 326.21493034 155.13267069 318.7109375 160.62890625 C312.77016067 164.99073907 306.8993424 169.43851423 301.046875 173.91796875 C293.6691338 179.56486158 286.23697071 185.126113 278.73510742 190.60693359 C274.43919867 193.75501869 270.18695938 196.95029329 265.97265625 200.20703125 C265.03679687 200.92890625 264.1009375 201.65078125 263.13671875 202.39453125 C261.33655928 203.78705967 259.54069564 205.18516633 257.75 206.58984375 C246.3949428 215.36824478 246.3949428 215.36824478 239.046875 216.41796875 C231.1851092 215.29485935 225.26310706 210.41329161 219.234375 205.54296875 C217.64227509 204.28046841 216.04847105 203.02011464 214.453125 201.76171875 C213.64101563 201.12105469 212.82890625 200.48039063 211.9921875 199.8203125 C208.13024689 196.81589545 204.18616659 193.92759069 200.234375 191.04296875 C193.44482919 186.07801277 186.72538139 181.03130566 180.046875 175.91796875 C173.42749226 170.85134065 166.77184293 165.84361416 160.046875 160.91796875 C152.41947483 155.33134455 144.89042935 149.62520537 137.3828125 143.87890625 C131.64784773 139.49732549 125.86927937 135.18253917 120.046875 130.91796875 C112.41947483 125.33134455 104.89042935 119.62520537 97.3828125 113.87890625 C91.64784773 109.49732549 85.86927937 105.18253917 80.046875 100.91796875 C72.41947483 95.33134455 64.89042935 89.62520537 57.3828125 83.87890625 C51.64745234 79.49702342 45.86731322 75.18629011 40.046875 70.91796875 C29.79579555 63.36454178 19.67540694 55.63494547 9.546875 47.91796875 C9.216875 67.05796875 8.886875 86.19796875 8.546875 105.91796875 C-16.9317115 97.42510658 -16.9317115 97.42510658 -23.453125 87.91796875 C-28.17317511 76.83814246 -26.17602089 62.76186543 -25.47155762 51.06951904 C-25.27965939 47.43839627 -25.20142502 43.80888654 -25.12876701 40.1737051 C-24.97654063 32.65231177 -24.75191988 25.12970546 -24.31982422 17.61889648 C-24.29335815 16.93984253 -24.26689209 16.26078857 -24.23962402 15.56115723 C-23.88857153 10.32216864 -22.33356889 7.18390857 -19.453125 2.91796875 C-13.51937787 -1.71035401 -7.09239236 -3.1283323 0 0 Z " fill="#FCB724" transform="translate(146.453125,1.08203125)"/>
<path d="M0 0 C2.75329021 1.79562405 4.52627461 3.05254922 6 6 C6.46155997 14.25123296 5.72700328 22.47446125 5 30.6875 C4.37982358 38.36890635 3.76432756 46.04257333 3.625 53.75 C3.58246094 55.66039062 3.58246094 55.66039062 3.5390625 57.609375 C4.09820622 61.72239832 5.35665056 63.82798067 8 67 C10.9622282 69.0572705 13.75596113 69.38064162 17.3125 69.6875 C18.66794922 69.81705078 18.66794922 69.81705078 20.05078125 69.94921875 C23.45540969 70.00784149 26.63797631 69.5102077 30 69 C31.10451782 59.73668432 32.09466593 50.48300538 32.74609375 41.17578125 C32.83281845 39.95868973 32.83281845 39.95868973 32.92129517 38.7170105 C33.15574306 35.40335716 33.38718451 32.08966124 33.60180664 28.7746582 C33.76370409 26.30327821 33.94118831 23.83340695 34.12109375 21.36328125 C34.16495712 20.62467361 34.2088205 19.88606598 34.25401306 19.12507629 C34.63016879 14.17714355 35.67877038 10.4109264 38 6 C41.71995016 3.52003323 44.69426202 3.58247389 49 4 C51.69620271 4.85143243 52.62097504 5.38068763 54.08988953 7.78083801 C57.50959602 16.11925721 54.63425367 28.0184103 54.01171875 36.89453125 C53.90676106 38.41468512 53.8018476 39.93484204 53.69697571 41.45500183 C53.47705813 44.62621645 53.25376225 47.79717382 53.02856445 50.96801758 C52.74350389 54.99122645 52.47125888 59.0151915 52.2021513 63.03949451 C51.99018789 66.17592898 51.76905055 69.31167098 51.54554176 72.44730186 C51.44142082 73.92873177 51.34051505 75.41039193 51.24316978 76.89228249 C50.38522147 89.86402119 49.48006113 102.96927694 42 114 C41.443125 114.886875 40.88625 115.77375 40.3125 116.6875 C33.34595161 123.65404839 24.53492926 127.1998591 14.74707031 127.3293457 C13.63477051 127.32100708 13.63477051 127.32100708 12.5 127.3125 C11.71463867 127.30758545 10.92927734 127.3026709 10.12011719 127.29760742 C-2.00388834 127.05880125 -18.75711529 125.03169997 -28.3359375 117.0546875 C-30.7438295 114.08156264 -30.93365034 111.78193077 -31 108 C-30.125 105.125 -30.125 105.125 -28 103 C-21.14827811 100.90964417 -15.92461614 102.78667856 -9.3762207 105.01342773 C1.91780811 108.76671845 13.26799385 110.86600308 24.25 105.375 C28.90743735 101.35266774 31.23691773 96.1046582 32 90 C31.01 90.33 30.02 90.66 29 91 C16.24841484 92.06680773 3.93777225 91.95215633 -6.3203125 83.52734375 C-11.95699883 78.40189176 -15.51461254 71.47771977 -17 64 C-17.5044886 52.82502079 -16.74116339 41.65326709 -15.88305664 30.51489258 C-15.6853986 27.90980407 -15.5075143 25.30380056 -15.33007812 22.69726562 C-15.2043195 21.01553525 -15.07740888 19.33389053 -14.94921875 17.65234375 C-14.87401253 16.50221046 -14.87401253 16.50221046 -14.79728699 15.32884216 C-14.38568148 10.31659346 -13.285848 6.49644916 -11 2 C-7.72426858 -0.69077938 -4.08803319 -0.43031928 0 0 Z " fill="#FDFDFD" transform="translate(1083,373)"/>
<path d="M0 0 C2.67412673 2.0249646 2.67412673 2.0249646 5.5625 1.1875 C6.635 0.6925 7.7075 0.1975 8.8125 -0.3125 C19.64746625 -4.86247766 29.74131516 -7.36852554 41.25390625 -3.54296875 C48.65636393 0.01699181 54.19439536 5.83480353 57.19140625 13.44921875 C58.49877497 18.1606796 58.9392685 22.75316754 58.95776367 27.62939453 C58.96414352 28.77723419 58.97052338 29.92507385 58.97709656 31.10769653 C58.97820938 32.3328598 58.9793222 33.55802307 58.98046875 34.8203125 C58.98546135 36.72440384 58.98546135 36.72440384 58.99055481 38.66696167 C58.99560885 41.34490481 58.99839714 44.02274634 58.99780273 46.70068359 C58.9977008 50.12822879 59.01139668 53.55556831 59.02857494 56.98306465 C59.04236982 60.26213959 59.04178329 63.54121247 59.04296875 66.8203125 C59.05015427 68.04952423 59.05733978 69.27873596 59.06474304 70.54519653 C59.06166641 71.68673187 59.05858978 72.82826721 59.05541992 74.00439453 C59.05684494 75.00777863 59.05826996 76.01116272 59.05973816 77.04495239 C58.80425407 79.77563472 58.30006103 81.39908616 56.8125 83.6875 C53.76266004 85.21241998 51.1701631 84.92312548 47.8125 84.6875 C46.1138916 83.51799011 46.1138916 83.51799011 44.8125 81.6875 C44.43395996 79.17866516 44.43395996 79.17866516 44.42773438 76.1496582 C44.41762329 75.01450272 44.40751221 73.87934723 44.39709473 72.70979309 C44.40011597 71.48169418 44.40313721 70.25359528 44.40625 68.98828125 C44.39541382 67.72412888 44.38457764 66.4599765 44.37341309 65.15751648 C44.33906125 61.10495205 44.3229404 57.05267646 44.3125 53 C44.29873814 47.68333373 44.26415083 42.36729863 44.21875 37.05078125 C44.22177124 35.8328035 44.22479248 34.61482574 44.22790527 33.35993958 C44.16998116 26.76660054 43.74538368 21.6386784 40.8125 15.6875 C36.68640044 11.76267359 33.93302238 10.50081647 28.3125 10.3125 C26.84296875 10.23902344 26.84296875 10.23902344 25.34375 10.1640625 C21.8212355 10.68620514 19.72342023 11.60353189 16.59179688 13.22021484 C15.69553589 13.67955414 14.7992749 14.13889343 13.87585449 14.6121521 C13.19494751 14.96701691 12.51404053 15.32188171 11.8125 15.6875 C11.81916183 16.50769119 11.82582367 17.32788239 11.83268738 18.17292786 C11.89276878 25.89795133 11.93845913 33.62286171 11.96793652 41.34805775 C11.98360056 45.31978627 12.00485199 49.29132193 12.03881836 53.26293945 C12.07138596 57.09493089 12.08934745 60.92673668 12.09713173 64.75885582 C12.10267996 66.22172659 12.11351425 67.68458707 12.12969017 69.14737892 C12.15143079 71.19458696 12.15446847 73.2410254 12.15307617 75.28833008 C12.15973801 76.45415115 12.16639984 77.61997223 12.17326355 78.82112122 C11.8125 81.6875 11.8125 81.6875 10.50996399 83.56401062 C7.64880763 85.45770545 5.12406825 85.04231088 1.8125 84.6875 C-0.80343153 82.85634793 -1.15739455 81.77781634 -2.1875 78.6875 C-2.28402691 76.83817675 -2.32291897 74.9856186 -2.3293457 73.13378906 C-2.33638016 71.99540588 -2.34341461 70.85702271 -2.35066223 69.68414307 C-2.35482651 68.4529071 -2.35899078 67.22167114 -2.36328125 65.953125 C-2.38648111 63.35155442 -2.41059852 60.7499919 -2.43554688 58.1484375 C-2.47190155 54.04264326 -2.50168528 49.9369984 -2.51342773 45.83105469 C-2.52549231 41.87146564 -2.56913381 37.91248962 -2.61328125 33.953125 C-2.61137283 32.72998596 -2.60946442 31.50684692 -2.60749817 30.24664307 C-2.70377917 23.52666988 -3.08710026 19.11308969 -7.1875 13.6875 C-11.03633332 10.50605697 -14.15085642 10.30514074 -19.0625 10.375 C-20.23554687 10.37886719 -21.40859375 10.38273437 -22.6171875 10.38671875 C-26.36194138 10.70219583 -29.59659202 11.6122609 -33.1875 12.6875 C-33.19336624 13.53052673 -33.19923248 14.37355347 -33.20527649 15.24212646 C-33.26318585 23.18778553 -33.33525233 31.13316297 -33.42321491 39.07854843 C-33.46793812 43.16334815 -33.50718976 47.24804769 -33.53393555 51.33300781 C-33.55994936 55.27541787 -33.60033761 59.21744281 -33.65068626 63.15961456 C-33.66736809 64.66344664 -33.6788742 66.16734536 -33.68511391 67.67125702 C-33.69474112 69.77831878 -33.72278123 71.88439239 -33.75512695 73.99121094 C-33.76623001 75.19034119 -33.77733307 76.38947144 -33.78877258 77.62493896 C-34.22222684 80.95423128 -34.77312715 82.38053883 -37.1875 84.6875 C-41.00282263 85.24245602 -43.18823569 85.40151481 -46.37780762 83.12243652 C-48.79018703 79.87658613 -48.7501242 77.11920215 -48.70507812 73.22851562 C-48.7120874 72.48333176 -48.71909668 71.73814789 -48.72631836 70.97038269 C-48.74390042 68.51112424 -48.73227574 66.05301982 -48.71875 63.59375 C-48.72144488 61.88268819 -48.72532726 60.17162786 -48.73034668 58.46057129 C-48.73624198 54.87607225 -48.72767799 51.29197216 -48.70898438 47.70751953 C-48.68619451 43.11383561 -48.69931746 38.52108646 -48.72327423 33.92743683 C-48.73773152 30.39464276 -48.73312661 26.86207016 -48.72276306 23.32926941 C-48.72009557 21.63559356 -48.72336635 19.94189757 -48.73268127 18.24824524 C-48.74284612 15.88045024 -48.72734879 13.51416683 -48.70507812 11.14648438 C-48.71317505 10.44714279 -48.72127197 9.74780121 -48.72961426 9.02726746 C-48.67179084 5.70729961 -48.39992906 3.96456231 -46.35559082 1.29821777 C-43.49354983 -0.82804937 -40.81454148 -1.58701228 -37.375 -2.5 C-36.19292969 -2.82355469 -35.01085938 -3.14710938 -33.79296875 -3.48046875 C-22.15386959 -6.16641471 -10.10295899 -7.3295977 0 0 Z " fill="#FDFDFD" transform="translate(1286.1875,254.3125)"/>
<path d="M0 0 C7.51270663 6.10938973 12.03743712 12.96376667 13.8828125 22.49609375 C14.2276011 27.35500799 14.21256489 32.20756314 14.19848633 37.07666016 C14.19532939 39.35888614 14.21882802 41.63980886 14.24414062 43.921875 C14.29729299 55.95473415 12.91327238 66.06598945 4.8828125 75.49609375 C-2.77908584 82.9271251 -9.91921837 85.59114941 -20.4921875 85.93359375 C-31.52254749 85.64709089 -38.97603072 82.68554687 -46.94921875 75.00390625 C-53.52363259 67.39890862 -55.26140255 59.52272899 -55.3203125 49.703125 C-55.32601257 48.9570549 -55.33171265 48.2109848 -55.33758545 47.44230652 C-55.34700325 45.86641849 -55.35355658 44.29051104 -55.35742188 42.71459961 C-55.36708657 40.33346064 -55.39812254 37.95320093 -55.4296875 35.57226562 C-55.51482287 23.46963423 -54.43371059 12.97306192 -46.1171875 3.49609375 C-33.34900517 -8.22514314 -14.2977739 -10.1561678 0 0 Z M-32.1171875 18.49609375 C-35.1948443 22.62297267 -35.5021818 25.71298082 -35.515625 30.80859375 C-35.51849518 31.49993408 -35.52136536 32.19127441 -35.52432251 32.90356445 C-35.52635589 34.35922062 -35.52087688 35.81490456 -35.50830078 37.27050781 C-35.49223482 39.489558 -35.50817211 41.70678722 -35.52734375 43.92578125 C-35.52536119 45.34505607 -35.52151724 46.76432977 -35.515625 48.18359375 C-35.51224121 49.46621094 -35.50885742 50.74882812 -35.50537109 52.0703125 C-34.94423655 57.02241304 -33.25080758 59.50072003 -29.5546875 62.74609375 C-25.44151731 65.69913902 -22.10099546 66.00749195 -17.1171875 65.49609375 C-11.76978336 63.54223454 -8.66100607 60.58373088 -6.1171875 55.49609375 C-5.85820292 51.16265656 -5.84608729 46.82530173 -5.82202148 42.48510742 C-5.80488834 40.33381236 -5.76101512 38.18408715 -5.71679688 36.03320312 C-5.56544373 26.05990816 -5.56544373 26.05990816 -10.1171875 17.49609375 C-14.00276151 13.84600908 -18.36200009 13.99366895 -23.45703125 14.14453125 C-27.23333339 14.64360202 -29.33908881 15.92635246 -32.1171875 18.49609375 Z " fill="#FDFDFD" transform="translate(1032.1171875,378.50390625)"/>
<path d="M0 0 C0.680625 -0.0309375 1.36125 -0.061875 2.0625 -0.09375 C4 0.5 4 0.5 5.5978241 2.38023376 C7.63876865 6.92122601 7.41014924 11.08513201 7.37231445 16.01000977 C7.37596512 17.06745392 7.37961578 18.12489807 7.38337708 19.21438599 C7.39147773 22.70688984 7.37787693 26.19892907 7.36328125 29.69140625 C7.36276263 32.11848449 7.36328041 34.54556316 7.36479187 36.97264099 C7.36470217 42.05758948 7.35427639 47.14237934 7.33618164 52.22729492 C7.31348267 58.7499408 7.31295287 65.27235513 7.31969929 71.79502964 C7.32303813 76.80582238 7.31641095 81.81656219 7.30657005 86.82734489 C7.30271722 89.23274394 7.30157018 91.63814888 7.3031559 94.04355049 C7.30352611 97.40227641 7.29091862 100.76070365 7.2746582 104.11938477 C7.27713562 105.11637894 7.27961304 106.11337311 7.28216553 107.14057922 C7.27508072 108.05599487 7.26799591 108.97141052 7.26069641 109.91456604 C7.25761711 111.10499937 7.25761711 111.10499937 7.25447559 112.31948185 C6.9652325 114.79791135 6.32504476 116.39267164 5 118.5 C-6.81367379 124.7760142 -23.972027 127.12242391 -36.9375 123.4375 C-44.99169966 120.14190014 -51.32941929 114.38658908 -55 106.5 C-57.17369125 101.21505684 -57.32168913 96.4817413 -57.3359375 90.859375 C-57.3425943 89.93715149 -57.3492511 89.01492798 -57.35610962 88.0647583 C-57.36620562 86.11822494 -57.37092759 84.17165717 -57.37060547 82.22509766 C-57.37496577 79.27317053 -57.41128219 76.32275552 -57.44921875 73.37109375 C-57.45509042 71.47135922 -57.45905747 69.57161767 -57.4609375 67.671875 C-57.48249405 66.36666901 -57.48249405 66.36666901 -57.50448608 65.03509521 C-57.43719766 55.8409196 -54.38373405 47.98774703 -48.0625 41.2578125 C-39.76849635 34.18905939 -30.52054643 32.9239075 -20 33.5 C-10.43696028 34.78151986 -10.43696028 34.78151986 -7 36.5 C-7.01571045 35.51604248 -7.0314209 34.53208496 -7.04760742 33.51831055 C-7.10190978 29.86751492 -7.13635085 26.21675499 -7.16479492 22.56567383 C-7.17988094 20.98553464 -7.2003525 19.40543731 -7.22631836 17.82543945 C-7.26271126 15.55409415 -7.27972762 13.28330241 -7.29296875 11.01171875 C-7.30845261 10.30536789 -7.32393646 9.59901703 -7.33988953 8.8712616 C-7.3415696 3.97430606 -7.3415696 3.97430606 -5.6027832 1.55981445 C-3.62573626 0.25252416 -2.36280589 0.03580009 0 0 Z M-40.375 55.0625 C-43.34772487 59.52158731 -43.19029645 63.71796226 -43.23828125 68.89453125 C-43.246353 69.71950607 -43.25442474 70.5444809 -43.26274109 71.39445496 C-43.27656573 73.14030872 -43.28729513 74.88618932 -43.29516602 76.63208008 C-43.31236972 79.29235467 -43.35626773 81.95138308 -43.40039062 84.61132812 C-43.41051904 86.30988672 -43.41903468 88.00845585 -43.42578125 89.70703125 C-43.44328934 90.49785599 -43.46079742 91.28868073 -43.47883606 92.10346985 C-43.45828085 97.37759648 -42.44666341 100.29111278 -39 104.5 C-34.0863068 109.15507776 -29.15426087 110.92386142 -22.36328125 110.765625 C-14.09589311 109.99518144 -14.09589311 109.99518144 -7 106.5 C-6.9064081 104.78134591 -6.88255389 103.05884256 -6.88647461 101.33764648 C-6.88655014 100.23658066 -6.88662567 99.13551483 -6.88670349 98.00108337 C-6.89186478 96.8031868 -6.89702606 95.60529022 -6.90234375 94.37109375 C-6.9037587 93.15172623 -6.90517365 91.9323587 -6.90663147 90.67604065 C-6.91225033 86.7631693 -6.92480604 82.85035419 -6.9375 78.9375 C-6.94251257 76.29231853 -6.9470759 73.64713617 -6.95117188 71.00195312 C-6.96222589 64.50128274 -6.97898236 58.00064539 -7 51.5 C-8.41672729 51.00406399 -9.8356163 50.51430086 -11.25537109 50.02709961 C-12.04527435 49.75369247 -12.83517761 49.48028534 -13.64901733 49.19859314 C-23.61330113 46.23771197 -33.30237013 47.43150461 -40.375 55.0625 Z " fill="#FDFDFD" transform="translate(1517,215.5)"/>
<path d="M0 0 C2.70674775 2.35449975 3.84262806 3.47167992 4.875 6.9375 C5.04165928 11.02065224 4.10263384 13.45631262 1.75 16.75 C-0.93141165 18.66529403 -2.68123719 18.87931772 -6 19 C-7.57564484 18.5660066 -9.13778598 18.0815312 -10.6875 17.5625 C-16.07913431 15.77892446 -21.35012791 15.24472196 -27 16 C-29.41121859 17.95633975 -29.41121859 17.95633975 -29.125 21.625 C-29.08375 22.73875 -29.0425 23.8525 -29 25 C-27.54384763 25.72807619 -26.08762606 26.45601423 -24.63110352 27.18334961 C-23.36479453 27.81724367 -22.09967607 28.45352099 -20.83569336 29.09204102 C-17.79250949 30.62564101 -14.74979639 32.11330524 -11.64453125 33.51953125 C-3.4838476 37.27406632 2.04619799 41.19690339 5.5 49.6875 C6.89887501 57.5678292 6.23725107 66.38513845 2.1640625 73.359375 C-1.9252273 79.12280358 -7.79788549 83.98957578 -14.7734375 85.6796875 C-27.36452277 87.49103661 -40.50811968 85.52678371 -51 78 C-53.63551183 74.95268945 -54 73.54871198 -54 69.5 C-52.78702567 65.25458985 -51.58311824 63.57049787 -48 61 C-43.05044708 60.07195883 -39.371989 61.45639868 -34.625 63 C-29.06491248 64.79151267 -24.81607133 65.73854874 -19 65 C-16.22435155 63.64237846 -16.22435155 63.64237846 -15 61 C-14.18675916 57.5036435 -14.18675916 57.5036435 -16 54 C-19.74219156 51.45350004 -23.85396995 49.78731836 -28 48 C-45.10232184 40.31279886 -45.10232184 40.31279886 -49.09375 31.6171875 C-51.59623381 24.39018685 -51.84632186 16.14859639 -49 9 C-45.2708055 2.23854243 -40.14354234 -2.01023507 -32.98046875 -4.78125 C-21.9356442 -7.89593151 -9.82008717 -5.6397095 0 0 Z " fill="#FCFCFC" transform="translate(951,378)"/>
<path d="M0 0 C6.94160648 6.66170299 9.6484535 14.31908275 9.91552734 23.80541992 C9.9421146 26.19700298 9.95657428 28.58874189 9.9609375 30.98046875 C9.9675943 32.24844803 9.9742511 33.51642731 9.98110962 34.8228302 C9.99120949 37.49490489 9.99679556 40.16657209 9.99560547 42.83862305 C9.99540137 46.25854701 10.02281894 49.67764842 10.05714989 53.09737682 C10.08473331 56.37087674 10.08356611 59.64436835 10.0859375 62.91796875 C10.10030853 64.14404343 10.11467957 65.3701181 10.12948608 66.63334656 C10.12333282 67.77165421 10.11717957 68.90996185 10.11083984 70.08276367 C10.11368988 71.08313156 10.11653992 72.08349945 10.11947632 73.11418152 C9.48766049 76.48209173 8.26192414 77.62997879 5.625 79.75 C2.85546875 80.98046875 2.85546875 80.98046875 -0.1875 81.9375 C-1.18394531 82.26105469 -2.18039062 82.58460938 -3.20703125 82.91796875 C-14.22468388 85.81163091 -28.91849264 87.10935157 -39.3984375 81.94140625 C-46.02178099 77.9490747 -49.65550062 73.26150795 -51.96484375 65.859375 C-53.67303252 57.07440421 -52.82918203 48.132767 -47.96875 40.55859375 C-43.70861163 35.10280334 -39.19822408 32.03494566 -32.375 30.75 C-22.82552115 29.96769228 -13.60596677 30.08517126 -4.375 32.75 C-4.65279354 22.06960479 -4.65279354 22.06960479 -9.375 12.75 C-13.46840969 9.560521 -16.70095794 9.37058152 -21.8125 9.4375 C-23.08996094 9.44136719 -24.36742187 9.44523437 -25.68359375 9.44921875 C-29.26224239 9.74081234 -32.01982623 10.53339308 -35.375 11.75 C-41.43803972 12.26381693 -41.43803972 12.26381693 -44.3125 10.6875 C-46.01402633 7.5847167 -45.80019574 5.21230815 -45.375 1.75 C-41.99001019 -3.54824491 -35.3195388 -4.53022385 -29.5625 -5.9375 C-18.869866 -6.98579745 -8.65603038 -7.10688841 0 0 Z M-35.375 46.75 C-38.58044877 51.15749205 -39.15789664 55.46015781 -38.375 60.75 C-36.76379472 64.93913372 -34.8073836 67.85392634 -31.375 70.75 C-27.77066862 71.95144379 -24.44144155 71.97242284 -20.6875 72 C-19.66366211 72.0309375 -19.66366211 72.0309375 -18.61914062 72.0625 C-12.84402076 72.10612697 -10.23710674 70.94829003 -4.375 68.75 C-4.375 60.83 -4.375 52.91 -4.375 44.75 C-20.51730716 41.03292255 -20.51730716 41.03292255 -35.375 46.75 Z " fill="#FDFDFD" transform="translate(1657.375,255.25)"/>
<path d="M0 0 C6.32477989 5.65612899 11.29367958 12.32671323 12.36425781 20.92578125 C12.49873625 24.08552636 12.49733926 27.21317096 12.4375 30.375 C12.44458984 31.45394531 12.45167969 32.53289062 12.45898438 33.64453125 C12.39541511 41.4782204 12.39541511 41.4782204 10.76568604 43.62876892 C8.48424997 45.40053127 7.21370878 45.36364913 4.3449707 45.34057617 C3.40422195 45.34034958 2.46347321 45.34012299 1.49421692 45.33988953 C-0.02465874 45.31666374 -0.02465874 45.31666374 -1.57421875 45.29296875 C-2.61318802 45.28872391 -3.65215729 45.28447906 -4.72261047 45.28010559 C-8.04450276 45.26329849 -11.36579075 45.22564196 -14.6875 45.1875 C-16.93814229 45.17245582 -19.18879407 45.15876695 -21.43945312 45.14648438 C-26.95984197 45.11338836 -32.47987782 45.06316869 -38 45 C-37.72385784 47.41304604 -37.43575999 49.82364098 -37.140625 52.234375 C-37.06408691 52.91419434 -36.98754883 53.59401367 -36.90869141 54.29443359 C-36.19288294 60.01395176 -35.0536465 62.9463535 -31 67 C-25.68898785 71.01564333 -19.37792302 70.87811984 -13 70 C-9.79793385 68.81662773 -6.81598506 67.4744385 -3.7890625 65.8984375 C-0.16513779 64.73106679 1.6063854 65.40588133 5 67 C6.58939347 70.17878694 6.41576711 72.4956772 6 76 C0.6851804 82.17668223 -6.9739777 84.60261594 -14.91796875 85.38671875 C-25.18282196 85.82730173 -33.3182223 84.2799574 -41.375 77.625 C-49.92770171 69.45088871 -52.09196379 60.05906904 -52.36328125 48.43359375 C-52.36230087 46.44049084 -52.36113284 44.44729267 -52.33618164 42.4543457 C-52.31248186 40.43595526 -52.31566204 38.41888642 -52.32226562 36.40039062 C-52.25708163 24.36505519 -51.71435901 13.70680935 -44 4 C-32.18233753 -7.36221503 -13.60995295 -9.77124827 0 0 Z M-35 14 C-38.49457378 19.90462466 -38.32926038 25.25625967 -38 32 C-25.98168818 32.79553837 -14.04394251 33.12812705 -2 33 C-0.88156396 26.42413509 -0.33217863 20.83346335 -4 15 C-8.48001917 9.92189263 -13.1641273 7.40807156 -19.9375 6.6875 C-25.83232105 7.28901235 -30.82864185 9.82864185 -35 14 Z " fill="#FDFDFD" transform="translate(1908,255)"/>
<path d="M0 0 C7.46810931 5.3915496 12.91345114 12.35204553 14.58203125 21.55859375 C14.90210829 25.31264524 14.95206263 29.04237899 14.95703125 32.80859375 C14.98152344 33.80117188 15.00601562 34.79375 15.03125 35.81640625 C15.03511719 36.76773438 15.03898437 37.7190625 15.04296875 38.69921875 C15.05118652 39.56063477 15.0594043 40.42205078 15.06787109 41.30957031 C14.58203125 43.55859375 14.58203125 43.55859375 12.84396362 45.1778717 C10.25726646 46.75683571 8.90713158 46.92391051 5.90527344 46.89916992 C4.52429474 46.89883003 4.52429474 46.89883003 3.11541748 46.89848328 C2.12986877 46.88299942 1.14432007 46.86751556 0.12890625 46.8515625 C-0.88645203 46.84731766 -1.9018103 46.84307281 -2.94793701 46.83869934 C-6.18821829 46.82191799 -9.42787572 46.78426616 -12.66796875 46.74609375 C-14.86587643 46.73104624 -17.06379387 46.71735795 -19.26171875 46.70507812 C-24.64734797 46.6720163 -30.03261378 46.62182211 -35.41796875 46.55859375 C-35.29643334 48.46541635 -35.16412565 50.37155415 -35.02734375 52.27734375 C-34.95483398 53.33888672 -34.88232422 54.40042969 -34.80761719 55.49414062 C-34.08427412 61.18298914 -31.97666779 65.07592881 -27.85546875 68.99609375 C-22.70203797 72.29957502 -17.3560045 72.26550277 -11.41796875 71.55859375 C-8.23652405 70.40561318 -5.26366342 69.07573063 -2.2421875 67.5546875 C1.18407514 66.34625462 3.12518041 66.51032446 6.58203125 67.55859375 C8.92752799 71.07683886 9.16194528 72.41635069 8.58203125 76.55859375 C4.40275843 82.22083434 -2.58656335 85.2661657 -9.41796875 86.55859375 C-20.6755108 87.36648794 -29.72265894 86.62534633 -38.73046875 79.30859375 C-45.35760039 73.04294202 -49.34545794 65.639788 -49.69262695 56.43432617 C-49.71235463 54.9276756 -49.7205482 53.42084115 -49.71875 51.9140625 C-49.72303513 51.10423416 -49.72732025 50.29440582 -49.73173523 49.46003723 C-49.73744948 47.75486175 -49.73800035 46.04966191 -49.73364258 44.34448242 C-49.73049029 41.76372725 -49.75395091 39.18412886 -49.77929688 36.60351562 C-49.8274048 24.3452604 -49.26852553 13.89081348 -40.41796875 4.55859375 C-29.44790783 -5.84527048 -13.0757247 -7.79473734 0 0 Z M-32.41796875 15.55859375 C-36.47304419 22.27044276 -35.41796875 25.81478178 -35.41796875 34.55859375 C-23.20796875 34.55859375 -10.99796875 34.55859375 1.58203125 34.55859375 C1.90313186 23.72270038 1.90313186 23.72270038 -2.96484375 14.80078125 C-7.34331 10.79041615 -11.40229134 8.8794105 -17.35546875 8.24609375 C-23.2502898 8.8476061 -28.2466106 11.3872356 -32.41796875 15.55859375 Z " fill="#FDFDFD" transform="translate(1422.41796875,253.44140625)"/>
<path d="M0 0 C7.49298976 5.35615216 12.54581273 11.6808783 14.76953125 20.67578125 C15.42324451 26.70214773 15.34534804 32.77131021 15.29101562 38.82519531 C15.26957869 41.66948723 15.29087999 44.51125387 15.31640625 47.35546875 C15.33451627 59.02389171 14.8985543 69.17130461 6.5390625 78.14453125 C-1.41434699 85.02695183 -10.38997485 87.1687164 -20.69140625 86.984375 C-29.58200114 86.20914653 -36.26935605 82.20778002 -42.23046875 75.67578125 C-47.90371757 68.34242145 -49.54210741 61.12910255 -49.53125 52.03125 C-49.53553513 51.22142166 -49.53982025 50.41159332 -49.54423523 49.57722473 C-49.54994948 47.87204925 -49.55050035 46.16684941 -49.54614258 44.46166992 C-49.54299029 41.88091475 -49.56645091 39.30131636 -49.59179688 36.72070312 C-49.6399048 24.4624479 -49.08102553 14.00800098 -40.23046875 4.67578125 C-29.36880204 -5.62528331 -13.01209208 -7.72521754 0 0 Z M-31.48046875 17.11328125 C-36.12112675 23.90853046 -35.56921447 30.84451991 -35.54614258 38.76757812 C-35.54298798 41.03694948 -35.5664467 43.30500878 -35.59179688 45.57421875 C-35.59407085 47.03255046 -35.59477291 48.49088563 -35.59375 49.94921875 C-35.59673096 51.26325684 -35.59971191 52.57729492 -35.6027832 53.93115234 C-35.06420339 59.34802915 -33.46952719 63.16137649 -29.98046875 67.42578125 C-25.24962438 71.29647209 -21.27583616 72.98929111 -15.16796875 72.61328125 C-9.32605276 71.78885305 -5.86083281 69.48240089 -1.91796875 65.11328125 C2.24373792 59.10192717 1.07005646 51.13148676 1.11962891 44.08081055 C1.13614581 42.36127142 1.16337954 40.64179974 1.20166016 38.92260742 C1.88073443 26.78287835 1.88073443 26.78287835 -2.85083008 16.00854492 C-7.49924886 11.51806215 -10.93755486 10.42748081 -17.29296875 10.17578125 C-23.83185897 10.4125201 -27.06324138 12.3279516 -31.48046875 17.11328125 Z " fill="#FDFDFD" transform="translate(1193.23046875,253.32421875)"/>
<path d="M0 0 C5.3035091 5.05354863 8.3467844 11.31022881 8.70294189 18.64051819 C8.7097699 19.75954025 8.7165979 20.87856232 8.72363281 22.03149414 C8.73324036 23.30283707 8.7428479 24.57417999 8.75274658 25.88404846 C8.75759308 27.26774923 8.76187228 28.65145208 8.765625 30.03515625 C8.77137951 31.45714825 8.7771372 32.87914023 8.78289795 34.3011322 C8.7933863 37.27766276 8.799244 40.25416647 8.80273438 43.23071289 C8.80823315 47.04635156 8.83229922 50.8616359 8.86070633 54.67716312 C8.87931321 57.61194405 8.88453712 60.54663898 8.88607025 63.48147392 C8.88909868 64.88851306 8.89713368 66.29555061 8.91025543 67.70253181 C8.92728295 69.66758304 8.92359565 71.6327809 8.91894531 73.59790039 C8.92441376 75.2752401 8.92441376 75.2752401 8.92999268 76.98646545 C8.5625 79.75 8.5625 79.75 7.25897217 81.61106873 C4.4036038 83.52802817 1.88011024 83.10545824 -1.4375 82.75 C-3.13121033 81.54774475 -3.13121033 81.54774475 -4.4375 79.75 C-4.82276917 77.40647888 -4.82276917 77.40647888 -4.83813477 74.61108398 C-4.85814293 73.03815834 -4.85814293 73.03815834 -4.8785553 71.43345642 C-4.87867111 70.29912674 -4.87878693 69.16479706 -4.87890625 67.99609375 C-4.89211411 66.8254689 -4.90532196 65.65484406 -4.91893005 64.44874573 C-4.95990482 60.6949736 -4.98149819 56.94144534 -5 53.1875 C-5.02386441 49.4586254 -5.05217951 45.72997804 -5.09178162 42.00123596 C-5.11592971 39.68062719 -5.13095752 37.35989949 -5.13539124 35.03916931 C-5.20885529 23.41983997 -5.20885529 23.41983997 -9.25 12.75 C-13.72475486 8.65879556 -18.33834361 8.43353231 -24.1875 8.5 C-24.85265625 8.49226563 -25.5178125 8.48453125 -26.203125 8.4765625 C-30.00805503 8.49119685 -33.48948478 8.90541569 -37.20019531 9.76660156 C-37.99758118 9.94982971 -38.79496704 10.13305786 -39.61651611 10.32183838 C-40.2174408 10.46313171 -40.81836548 10.60442505 -41.4375 10.75 C-41.43083817 11.60777542 -41.42417633 12.46555084 -41.41731262 13.34931946 C-41.35723638 21.42751797 -41.31154339 29.50564161 -41.28206348 37.58401203 C-41.26639811 41.73733857 -41.24514418 45.89048075 -41.21118164 50.04370117 C-41.1786189 54.05075585 -41.16065355 58.05763304 -41.15286827 62.0648098 C-41.14731918 63.59466535 -41.13648324 65.12451103 -41.12030983 66.65429115 C-41.09857585 68.79488855 -41.09553128 70.93474973 -41.09692383 73.07543945 C-41.09026199 74.29455521 -41.08360016 75.51367096 -41.07673645 76.76972961 C-41.4375 79.75 -41.4375 79.75 -42.74003601 81.64372253 C-45.60672109 83.51200907 -48.13315725 83.10403672 -51.4375 82.75 C-54.05343153 80.91884793 -54.40739455 79.84031634 -55.4375 76.75 C-55.542613 74.43095874 -55.58620201 72.1089866 -55.59863281 69.78759766 C-55.60359772 69.08318039 -55.60856262 68.37876312 -55.61367798 67.65299988 C-55.6282794 65.32334414 -55.63509802 62.99375648 -55.640625 60.6640625 C-55.64637789 59.04365029 -55.65213561 57.4232381 -55.65789795 55.80282593 C-55.66840203 52.40500573 -55.67424865 49.00720915 -55.67773438 45.609375 C-55.68321945 41.25920453 -55.70725007 36.909347 -55.73570633 32.55927467 C-55.75434528 29.21179293 -55.75953896 25.8643864 -55.76107025 22.51685715 C-55.76409422 20.91330631 -55.77211415 19.30975671 -55.78525543 17.70625687 C-55.8023435 15.46099385 -55.80042941 13.21649337 -55.79394531 10.97119141 C-55.79941376 9.05616318 -55.79941376 9.05616318 -55.80499268 7.10244751 C-55.40918606 3.49170647 -54.62134864 1.62056426 -52.4375 -1.25 C-37.45569646 -9.75596393 -13.74476502 -11.06162489 0 0 Z " fill="#FDFDFD" transform="translate(1754.4375,256.25)"/>
<path d="M0 0 C8.4039172 7.12961882 12.27524555 17.1602016 13.6171875 27.8515625 C13.73479935 28.7070166 13.85241119 29.5624707 13.97358704 30.44384766 C14.3457025 33.20273505 14.69393748 35.96369244 15.03515625 38.7265625 C15.1509906 39.65404297 15.26682495 40.58152344 15.38616943 41.53710938 C16.09670433 47.28786555 16.76083967 53.04289373 17.39770508 58.80224609 C17.72561527 61.75319149 18.06474186 64.70271821 18.40429688 67.65234375 C21.04035694 90.95068916 21.04035694 90.95068916 20.03515625 95.7265625 C16.87406241 99.54191591 16.87406241 99.54191591 13.78125 100.22265625 C12.63849609 100.19365234 12.63849609 100.19365234 11.47265625 100.1640625 C10.32603516 100.16212891 10.32603516 100.16212891 9.15625 100.16015625 C6.47695472 99.61245501 5.74257232 98.8421976 4.03515625 96.7265625 C3.35398865 94.46679688 3.35398865 94.46679688 2.93530273 91.8203125 C2.70108109 90.34691406 2.70108109 90.34691406 2.46212769 88.84375 C1.75033308 83.64715591 1.1666333 78.44419376 0.6328125 73.2265625 C0.37983505 70.8515329 0.12657114 68.47653379 -0.12695312 66.1015625 C-0.51656443 62.40921593 -0.90337018 58.71662702 -1.28491211 55.0234375 C-1.65854008 51.42358823 -2.04341449 47.82507389 -2.4296875 44.2265625 C-2.53917221 43.13666016 -2.64865692 42.04675781 -2.76145935 40.92382812 C-4.22671762 26.46011106 -4.22671762 26.46011106 -11.96484375 14.7265625 C-17.59799158 10.50170163 -24.24985468 11.07091443 -30.96484375 11.7265625 C-38.05101931 13.13656682 -44.81645569 15.15175422 -51.46484375 17.9765625 C-55.48201642 19.64871895 -58.56692669 20.50266551 -62.96484375 19.7265625 C-66.65670917 17.13440167 -67.79368136 15.68507186 -68.58984375 11.2265625 C-67.7974984 6.78942853 -66.32818355 5.65502755 -62.96484375 2.7265625 C-44.90970097 -7.79941237 -17.83180943 -12.76845614 0 0 Z " fill="#FDFDFD" transform="translate(961.96484375,235.2734375)"/>
<path d="M0 0 C0.680625 -0.01933594 1.36125 -0.03867188 2.0625 -0.05859375 C4.89075364 0.66557603 5.52413533 1.95640722 7 4.4375 C7.34057617 7.27832031 7.34057617 7.27832031 7.29296875 10.515625 C7.28330078 11.67578125 7.27363281 12.8359375 7.26367188 14.03125 C7.23853516 15.2378125 7.21339844 16.444375 7.1875 17.6875 C7.16719727 19.52054688 7.16719727 19.52054688 7.14648438 21.390625 C7.1111398 24.40669498 7.0617956 27.42187487 7 30.4375 C7.88522339 30.41393433 7.88522339 30.41393433 8.78833008 30.38989258 C11.46295586 30.32752061 14.13742864 30.28850343 16.8125 30.25 C17.74126953 30.22486328 18.67003906 30.19972656 19.62695312 30.17382812 C20.51962891 30.16416016 21.41230469 30.15449219 22.33203125 30.14453125 C23.15421143 30.1288208 23.9763916 30.11311035 24.82348633 30.09692383 C27 30.4375 27 30.4375 28.7722168 31.73706055 C30.79341078 34.5363479 30.29730384 37.10769695 30 40.4375 C28 43.4375 28 43.4375 25 44.4375 C23.59175107 44.51771999 22.18002769 44.54515977 20.76953125 44.53515625 C19.96708984 44.53193359 19.16464844 44.52871094 18.33789062 44.52539062 C17.50451172 44.51701172 16.67113281 44.50863281 15.8125 44.5 C14.5450293 44.49323242 14.5450293 44.49323242 13.25195312 44.48632812 C11.16793845 44.47455403 9.08396023 44.4566189 7 44.4375 C7.06700002 51.89428569 7.15680726 59.35054709 7.26245117 66.80688477 C7.29569888 69.34327968 7.32373125 71.87974856 7.34643555 74.41625977 C7.3799834 78.06298328 7.43230152 81.70902911 7.48828125 85.35546875 C7.49467117 86.48897263 7.5010611 87.6224765 7.50764465 88.79032898 C7.53733589 90.38141228 7.53733589 90.38141228 7.56762695 92.00463867 C7.57873001 92.93507492 7.58983307 93.86551117 7.60127258 94.82414246 C8.17768146 98.60206799 9.70004832 101.420531 12.72265625 103.78515625 C17.17473579 105.06045176 21.83470837 103.94264196 26.37109375 103.43359375 C30.33799395 103.43786383 32.01347214 103.85899872 35 106.4375 C35.59375 108.375 35.59375 108.375 35.5 110.4375 C35.4896875 111.118125 35.479375 111.79875 35.46875 112.5 C34.86670164 114.98846655 34.01324779 115.87930136 32 117.4375 C24.22235312 120.58559516 13.52021104 120.84463446 5.5625 118.375 C0.64331492 116.14372407 -2.5845342 112.37563829 -4.90840149 107.55189514 C-7.36514802 100.8038958 -7.38654674 94.43083774 -7.29296875 87.30859375 C-7.28872391 86.07834976 -7.28447906 84.84810577 -7.28010559 83.58058167 C-7.26340766 79.67849184 -7.22577075 75.77693188 -7.1875 71.875 C-7.17073803 69.21810652 -7.15875539 66.56121802 -7.14648438 63.90429688 C-7.11353318 57.41518595 -7.06342238 50.92638085 -7 44.4375 C-8.27875 44.31375 -9.5575 44.19 -10.875 44.0625 C-14.75 43.6875 -14.75 43.6875 -17 41.4375 C-17.265625 39.34375 -17.265625 39.34375 -17.25 36.9375 C-17.25515625 36.1434375 -17.2603125 35.349375 -17.265625 34.53125 C-17 32.4375 -17 32.4375 -15 30.4375 C-12.31160615 30.16758094 -9.70858064 30.35012643 -7 30.4375 C-7.02356567 29.23420044 -7.02356567 29.23420044 -7.04760742 28.0065918 C-7.10988583 24.37946596 -7.14896864 20.75245251 -7.1875 17.125 C-7.21263672 15.86236328 -7.23777344 14.59972656 -7.26367188 13.29882812 C-7.27333984 12.09033203 -7.28300781 10.88183594 -7.29296875 9.63671875 C-7.3086792 8.52127686 -7.32438965 7.40583496 -7.34057617 6.2565918 C-7 3.4375 -7 3.4375 -5.6027832 1.57714844 C-3.61722757 0.16533218 -2.42329679 0.00458958 0 0 Z " fill="#FEFEFE" transform="translate(1803,220.5625)"/>
<path d="M0 0 C0.825 0.66 1.65 1.32 2.5 2 C3.428125 2.680625 3.428125 2.680625 4.375 3.375 C6.16236074 5.95674329 5.87333302 7.95111371 5.5 11 C4.5625 13.4375 4.5625 13.4375 2.5 15 C-1.98702788 15.28659659 -5.720668 14.37467885 -9.75 12.4375 C-14.97712564 9.96471457 -20.87675531 10.35506601 -26.5 11 C-31.46029156 13.26258913 -33.84763619 16.28468657 -36.5 21 C-38.37818341 26.54370796 -37.76364036 32.74117913 -37.79516602 38.53417969 C-37.80666675 40.00432983 -37.82708872 41.47443883 -37.85668945 42.94433594 C-38.02271344 51.19916006 -38.0816974 57.80664472 -33.5 65 C-33.5 65.66 -33.5 66.32 -33.5 67 C-27.26218831 70.35882168 -21.289217 72.27767407 -14.23046875 70.39453125 C-10.99700828 69.33816025 -7.89803732 68.18513364 -4.8125 66.75 C-1.69209769 65.73797763 0.37490198 66.0971939 3.5 67 C5.84549674 70.51824511 6.07991403 71.85775694 5.5 76 C1.43034462 81.34142269 -4.90237995 84.7867774 -11.5 86 C-23.06759048 86.77883335 -32.45144988 86.33957125 -41.8125 78.75 C-49.8478554 71.12047063 -52.45599848 63.0457146 -52.7644043 52.05526733 C-52.81439069 49.02710676 -52.82423079 46.00021004 -52.81567383 42.97167969 C-52.81251609 40.63689334 -52.83602647 38.3033803 -52.86132812 35.96875 C-52.91127562 24.50423674 -52.31655389 14.10841154 -44.5859375 5.0078125 C-32.85214332 -6.28651374 -14.04181347 -9.03681065 0 0 Z " fill="#FCFCFC" transform="translate(1115.5,254)"/>
<path d="M0 0 C2.10320104 0.01463328 4.20634699 0.05607581 6.30859375 0.12109375 C7.90864258 0.12979492 7.90864258 0.12979492 9.54101562 0.13867188 C17.4514157 0.2639157 17.4514157 0.2639157 19.74609375 2.55859375 C20.9011944 6.62993366 20.87886753 10.61217439 20.89135742 14.82397461 C20.89471603 15.53683121 20.89807465 16.24968781 20.90153503 16.98414612 C20.91100072 19.33059451 20.91298582 21.67697123 20.9140625 24.0234375 C20.91727771 25.66101612 20.92064198 27.29859446 20.92414856 28.93617249 C20.93012856 32.3649258 20.93198958 35.79365395 20.93139648 39.22241211 C20.93129483 43.60822831 20.94495533 47.99388274 20.96216869 52.37966061 C20.97330501 55.7606327 20.9753152 59.14156585 20.97478676 62.5225544 C20.97596409 64.13922242 20.98037199 65.75589154 20.98811913 67.37254143 C20.99795373 69.63641477 20.99502763 71.89993899 20.98901367 74.16381836 C20.99043869 75.45001572 20.99186371 76.73621307 20.99333191 78.06138611 C20.74425203 81.58464511 20.13019978 84.31560324 18.74609375 87.55859375 C15.69625379 89.08351373 13.10375685 88.79421923 9.74609375 88.55859375 C8.04472351 87.47160339 8.04472351 87.47160339 6.74609375 85.55859375 C6.3853302 82.50239563 6.3853302 82.50239563 6.40551758 78.70043945 C6.4050795 78.00749786 6.40464142 77.31455627 6.40419006 76.60061646 C6.4062791 74.31158207 6.42961449 72.02328133 6.453125 69.734375 C6.45872057 68.14682923 6.46299085 66.55927827 6.46598816 64.97172546 C6.47744007 60.79423712 6.50691002 56.61706192 6.5401001 52.43969727 C6.57079364 48.17663814 6.58449195 43.9135284 6.59960938 39.65039062 C6.63177958 31.28631467 6.68297988 22.92249317 6.74609375 14.55859375 C6.070625 14.59339844 5.39515625 14.62820313 4.69921875 14.6640625 C3.8071875 14.69113281 2.91515625 14.71820313 1.99609375 14.74609375 C1.114375 14.78089844 0.23265625 14.81570313 -0.67578125 14.8515625 C-3.7556022 14.50158285 -5.03925059 13.69326185 -7.25390625 11.55859375 C-8.34239696 8.22055558 -8.45820447 6.26331943 -7.48046875 2.890625 C-4.75289106 0.03384626 -3.84793148 0.16819421 0 0 Z " fill="#F0F0F0" transform="translate(1013.25390625,250.44140625)"/>
<path d="M0 0 C1.53333984 -0.00386719 1.53333984 -0.00386719 3.09765625 -0.0078125 C4.16886719 -0.00007812 5.24007813 0.00765625 6.34375 0.015625 C7.95056641 0.00402344 7.95056641 0.00402344 9.58984375 -0.0078125 C10.61207031 -0.00523437 11.63429688 -0.00265625 12.6875 0 C13.62787109 0.00225586 14.56824219 0.00451172 15.53710938 0.00683594 C17.84375 0.265625 17.84375 0.265625 19.84375 2.265625 C20.04742442 4.89954001 20.12695184 7.42875622 20.1184082 10.06420898 C20.1260746 11.27173828 20.1260746 11.27173828 20.13389587 12.50366211 C20.14783163 15.17308929 20.14683211 17.84225944 20.14453125 20.51171875 C20.14841606 22.3625549 20.15275028 24.21339015 20.15751648 26.06422424 C20.16498731 29.94722379 20.16468123 33.83013243 20.15942383 37.71313477 C20.15362875 42.69466314 20.17055689 47.67581976 20.1937685 52.65728664 C20.20848476 56.48080123 20.20938041 60.30422586 20.20625877 64.12776375 C20.20677307 65.96461791 20.21203108 67.80147696 20.22207069 69.63830376 C20.23437682 72.20499855 20.22767876 74.77096379 20.21606445 77.33764648 C20.22753006 78.48092155 20.22753006 78.48092155 20.23922729 79.64729309 C20.188117 84.74504044 20.188117 84.74504044 18.53923035 87.23768616 C15.64891709 88.99003042 13.11584839 88.61620697 9.84375 88.265625 C7.22781847 86.43447293 6.87385545 85.35594134 5.84375 82.265625 C5.75413047 80.07287481 5.72616809 77.87743842 5.73022461 75.68286133 C5.73007858 75.01918045 5.72993256 74.35549957 5.7297821 73.67170715 C5.73047818 71.48032348 5.7382563 69.28902505 5.74609375 67.09765625 C5.74795901 65.57736762 5.74938241 64.05707839 5.75038147 62.53678894 C5.75419812 58.53698057 5.76402115 54.53720856 5.77508545 50.53741455 C5.78531787 46.45528658 5.78988302 42.37315273 5.79492188 38.29101562 C5.80564417 30.28253541 5.82271039 22.27408473 5.84375 14.265625 C5.23031738 14.28955322 4.61688477 14.31348145 3.98486328 14.33813477 C3.17774902 14.35674561 2.37063477 14.37535645 1.5390625 14.39453125 C0.74000488 14.41845947 -0.05905273 14.4423877 -0.88232422 14.46704102 C-3.15625 14.265625 -3.15625 14.265625 -6.28125 12.203125 C-8.15625 9.265625 -8.15625 9.265625 -8.09375 5.578125 C-6.62002968 0.37097988 -5.07916308 0.01218442 0 0 Z " fill="#FDFDFD" transform="translate(1557.15625,250.734375)"/>
<path d="M0 0 C0.680625 0.04382813 1.36125 0.08765625 2.0625 0.1328125 C4.99832244 1.2574219 5.5978711 3.11803685 7 5.875 C7.62651062 8.7449646 7.62651062 8.7449646 7.9831543 11.93115234 C8.1930323 13.7285939 8.1930323 13.7285939 8.40715027 15.56234741 C8.54478287 16.84888214 8.68241547 18.13541687 8.82421875 19.4609375 C8.97593799 20.80476285 9.12860749 22.14848122 9.28218079 23.49209595 C9.6011044 26.30386865 9.91219551 29.11635419 10.21704102 31.9296875 C10.60625818 35.52070341 11.00921378 39.10999714 11.41737652 42.69890404 C11.8080007 46.1398587 12.19120181 49.58162937 12.57421875 53.0234375 C12.71792404 54.30592377 12.86162933 55.58841003 13.00968933 56.90975952 C14.69358258 72.45767907 14.69358258 72.45767907 12.5625 76.8125 C9.31259115 79.4282803 7.2808779 79.43445055 3.21875 79.44140625 C-0.05222355 78.60638659 -0.96309067 77.62410654 -3 74.875 C-3.93300732 71.24883105 -4.28543532 67.58255442 -4.66796875 63.86328125 C-4.79311356 62.78048386 -4.91825836 61.69768646 -5.04719543 60.58207703 C-5.44363028 57.11883676 -5.8158615 53.65348 -6.1875 50.1875 C-6.44827863 47.87286705 -6.71063102 45.55841084 -6.97460938 43.24414062 C-7.56660578 38.02419654 -8.14241858 32.80273851 -8.70596313 27.57965088 C-9.0617612 24.30689956 -9.43185985 21.03584826 -9.80604553 17.76515198 C-10.08891812 15.0084628 -10.20637597 12.27012568 -10.25 9.5 C-10.27578125 8.50226563 -10.3015625 7.50453125 -10.328125 6.4765625 C-10 3.875 -10 3.875 -8.671875 2.0859375 C-5.81882537 0.01947632 -3.40029632 -0.29623794 0 0 Z " fill="#FDFDFD" transform="translate(907,263.125)"/>
<path d="M0 0 C3.32635764 2.18839318 3.90585122 3.62340488 4.875 7.5 C4.99677465 10.90969032 4.99358484 12.30866047 3 15 C-0.7205836 17.48038907 -2.59796571 17.46337203 -7 17 C-10.28573474 14.83833241 -10.90007665 13.36638562 -11.9375 9.5625 C-12.00698608 5.60179332 -11.43366566 4.06461602 -9 1 C-5.90826248 -0.54586876 -3.40570448 -0.29359521 0 0 Z " fill="#F8F8F8" transform="translate(1027,219)"/>
<path d="M0 0 C3.00342896 2.05497771 3.83287356 3.47633714 4.9375 6.9375 C5.01245915 10.61049821 4.178742 12.09501066 2 15 C0 17 0 17 -3.375 17.375 C-7 17 -7 17 -9.375 15.4375 C-11.53538251 12.19692624 -11.93187446 9.88315597 -12 6 C-9.23686788 -0.05257513 -6.48314875 -0.55889213 0 0 Z " fill="#FBFBFB" transform="translate(1571,219)"/>
</svg>
